:SAMPLES-PER-SECOND 30
:FULLY-SPECIFIED
:DEGREES
54
root  -23.29888832 39.48977913 30.92199911 2.37774992 -0.4873350859 -1.700860143
lowerback  7.068500042 1.565490007 -1.869619966
upperback  0.5804119706 1.962880015 0.7497119904
thorax  -3.451869965 1.007740021 1.62846005
lowerneck  -16.7385006 4.893939972 -4.026219845
upperneck  24.33399963 7.936510086 0.5676050782
head  10.37059975 3.34175992 1.949849963
lclavicle  0 -5.34481991e-014 2.981770104e-014
lhumerus  -37.23400116 18.47400093 75.97869873
lradius  0.003583191894 6.643666666e-007 23.60020065
lwrist  -1.645157397e-007 -3.533851896e-007 -5.287129879
lhand  -5.505032044e-031 -15.8135004 33.60620117
lfingers  90 7.125020027 -90
lthumb  93.41605384 18.01962653 79.07819387
rclavicle  0 -5.34481991e-014 2.981770104e-014
rhumerus  -37.21110153 -17.70619965 -73.20880127
rradius  -1.296506525e-006 2.359789448e-007 42.33729935
rwrist  -2.281664457e-008 -8.593936229e-009 14.55770016
rhand  -1.345748685e-031 10.2737999 9.996669769
rfingers  -90 -7.125020027 -90
rthumb  -72.52445805 -22.91766803 -51.04506765
rfemur  -13.50970364 -3.01857996 22.90369987
rtibia  9.670418422e-007 1.119611625e-006 56.45100403
rfoot  2.556521167e-006 -13.28880119 1.322649956
rtoes  2.336001174 19.8686595 -96.84438506
lfemur  -16.70060921 -0.7858425975 -20.12669563
ltibia  -3.641206786e-005 2.004581745e-007 19.91831398
lfoot  -5.693161143e-007 -7.705954075 -5.640790939
ltoes  -5.298979543 -19.31302686 -105.6655569
55
root  -23.27622241 39.48288865 31.11622127 2.359780073 -0.256043613 -1.617460251
lowerback  6.966320038 1.450799942 -2.038000107
upperback  0.5945060253 1.79866004 0.7378339767
thorax  -3.37774992 0.9278110266 1.730100036
lowerneck  -16.72120094 4.757760048 -4.164080143
upperneck  24.39259911 7.743389606 0.7210860252
head  10.38029957 3.257620096 2.00172019
lclavicle  0 -5.34481991e-014 2.981770104e-014
lhumerus  -36.65050125 18.13909912 76.43219757
lradius  0.003583191894 6.643666666e-007 24.10590363
lwrist  -1.645157397e-007 -3.533851896e-007 -5.182320118
lhand  -5.505032044e-031 -15.8135004 33.60620117
lfingers  90 7.125020027 -90
lthumb  93.41605384 18.01962653 79.07819387
rclavicle  0 -5.34481991e-014 2.981770104e-014
rhumerus  -37.26499939 -17.82119942 -73.1651001
rradius  -1.296506525e-006 2.359789448e-007 42.30509949
rwrist  -2.281664457e-008 -8.593936229e-009 13.78969955
rhand  -1.345748685e-031 10.2737999 9.996669769
rfingers  -90 -7.125020027 -90
rthumb  -72.52445805 -22.91766803 -51.04506765
rfemur  -14.30360031 -3.252770662 22.67440224
rtibia  9.670418422e-007 1.119611625e-006 57.17779541
rfoot  2.556521167e-006 -13.55989838 1.704091668
rtoes  2.336001174 19.8686595 -96.84438506
lfemur  -16.43389893 -0.9155039191 -20.29529953
ltibia  -3.641206786e-005 2.004581745e-007 20.01399612
lfoot  -5.693161143e-007 -7.991209984 -5.717178822
ltoes  -5.298979543 -19.31302686 -105.6655569
56
root  -23.26133308 39.48466684 31.32422139 2.149089813 -0.06556292623 -1.506119847
lowerback  7.004640102 1.383980036 -2.256180048
upperback  0.6812369823 1.692080021 0.7295110226
thorax  -3.310580015 0.8763350248 1.855069995
lowerneck  -16.99609947 4.5896101 -4.396440029
upperneck  24.77090073 7.52352953 1.019809842
head  10.5532999 3.157200098 2.136310101
lclavicle  0 -5.34481991e-014 2.981770104e-014
lhumerus  -36.05580139 17.59029961 77.02179718
lradius  0.003583191894 6.643666666e-007 24.69370079
lwrist  -1.645157397e-007 -3.533851896e-007 -4.870319843
lhand  -5.505032044e-031 -15.8135004 33.60620117
lfingers  90 7.125020027 -90
lthumb  93.41605384 18.01962653 79.07819387
rclavicle  0 -5.34481991e-014 2.981770104e-014
rhumerus  -37.4253006 -18.12649727 -73.01580048
rradius  -1.296506525e-006 2.359789448e-007 42.28960037
rwrist  -2.281664457e-008 -8.593936229e-009 13.32400036
rhand  -1.345748685e-031 10.2737999 9.996669769
rfingers  -90 -7.125020027 -90
rthumb  -72.52445805 -22.91766803 -51.04506765
rfemur  -14.82180309 -3.299700022 22.46040154
rtibia  9.670418422e-007 1.119611625e-006 57.82100296
rfoot  2.556521167e-006 -13.91010189 1.932790399
rtoes  2.336001174 19.8686595 -96.84438506
lfemur  -15.9960146 -1.059559345 -20.46979332
ltibia  -3.641206786e-005 2.004581745e-007 20.26302528
lfoot  -5.693161143e-007 -8.280529976 -5.714901924
ltoes  -5.298979543 -19.31302686 -105.6655569
57
root  -23.25377727 39.48088819 31.52755677 1.98770988 0.137542367 -1.391589999
lowerback  7.08908987 1.338850021 -2.522360086
upperback  0.7111970186 1.609240055 0.7237899899
thorax  -3.329900026 0.8386759758 2.005709887
lowerneck  -17.15040016 4.47468996 -4.598619938
upperneck  25.07519913 7.362320423 1.309250236
head  10.67770004 3.0896101 2.264739752
lclavicle  0 -5.34481991e-014 2.981770104e-014
lhumerus  -35.48929977 16.77169991 77.74279785
lradius  0.003583191894 6.643666666e-007 25.38500214
lwrist  -1.645157397e-007 -3.533851896e-007 -4.051790237
lhand  -5.505032044e-031 -15.8135004 33.60620117
lfingers  90 7.125020027 -90
lthumb  93.41605384 18.01962653 79.07819387
rclavicle  0 -5.34481991e-014 2.981770104e-014
rhumerus  -37.58530045 -18.50629997 -72.77559662
rradius  -1.296506525e-006 2.359789448e-007 42.25970078
rwrist  -2.281664457e-008 -8.593936229e-009 13.4982996
rhand  -1.345748685e-031 10.2737999 9.996669769
rfingers  -90 -7.125020027 -90
rthumb  -72.52445805 -22.91766803 -51.04506765
rfemur  -15.45609856 -3.315159559 22.27229881
rtibia  9.670418422e-007 1.119611625e-006 58.3932991
rfoot  2.556521167e-006 -14.16629982 2.050779819
rtoes  2.336001174 19.8686595 -96.84438506
lfemur  -15.72780514 -1.095149755 -20.64439774
ltibia  -3.641206786e-005 2.004581745e-007 20.69750786
lfoot  -5.693161143e-007 -8.648082733 -5.737270355
ltoes  -5.298979543 -19.31302686 -105.6655569
58
root  -23.24999862 39.44155475 31.70466686 2.004270077 0.4130838811 -1.374719858
lowerback  7.18351984 1.282680035 -2.662879944
upperback  0.5873219967 1.519209981 0.702458024
thorax  -3.509310007 0.7994650006 2.068559885
lowerneck  -16.80130005 4.40046978 -4.539569855
upperneck  24.99180031 7.205369949 1.352020025
head  10.58510017 3.035069942 2.235009909
lclavicle  0 -5.34481991e-014 2.981770104e-014
lhumerus  -34.95880127 15.77210045 78.37049866
lradius  0.003583191894 6.643666666e-007 25.95399857
lwrist  -1.645157397e-007 -3.533851896e-007 -3.108409882
lhand  -5.505032044e-031 -15.8135004 33.60620117
lfingers  90 7.125020027 -90
lthumb  93.41605384 18.01962653 79.07819387
rclavicle  0 -5.34481991e-014 2.981770104e-014
rhumerus  -37.94039917 -18.64369965 -72.61530304
rradius  -1.296506525e-006 2.359789448e-007 42.48139954
rwrist  -2.281664457e-008 -8.593936229e-009 13.24530029
rhand  -1.345748685e-031 10.2737999 9.996669769
rfingers  -90 -7.125020027 -90
rthumb  -72.52445805 -22.91766803 -51.04506765
rfemur  -16.33950233 -3.401769161 22.22859573
rtibia  9.670418422e-007 1.119611625e-006 58.92670441
rfoot  2.556521167e-006 -14.51770306 2.123579264
rtoes  2.336001174 19.8686595 -96.84438506
lfemur  -15.74240685 -1.175119877 -20.6968956
ltibia  -3.641206786e-005 2.004581745e-007 21.11891937
lfoot  -5.693161143e-007 -8.903020859 -5.788402557
ltoes  -5.298979543 -19.31302686 -105.6655569
59
root  -23.23688898 39.40644452 31.89044562 1.895860076 0.6985868812 -1.480730176
lowerback  7.23995018 1.191619992 -2.603709936
upperback  0.55231601 1.401129961 0.7052180171
thorax  -3.569099903 0.7411159873 2.049060106
lowerneck  -16.36020088 4.347430229 -4.45442009
upperneck  24.91279984 7.059279919 1.421379924
head  10.47560024 2.991470098 2.209180355
lclavicle  0 -5.34481991e-014 2.981770104e-014
lhumerus  -34.29399872 15.24800014 78.70529938
lradius  0.003583191894 6.643666666e-007 26.07589912
lwrist  -1.645157397e-007 -3.533851896e-007 -2.782209873
lhand  -5.505032044e-031 -15.8135004 33.60620117
lfingers  90 7.125020027 -90
lthumb  93.41605384 18.01962653 79.07819387
rclavicle  0 -5.34481991e-014 2.981770104e-014
rhumerus  -38.15869904 -18.68069839 -72.54920197
rradius  -1.296506525e-006 2.359789448e-007 42.66460037
rwrist  -2.281664457e-008 -8.593936229e-009 12.60319996
rhand  -1.345748685e-031 10.2737999 9.996669769
rfingers  -90 -7.125020027 -90
rthumb  -72.52445805 -22.91766803 -51.04506765
rfemur  -17.03510666 -3.519620657 22.2922039
rtibia  9.670418422e-007 1.119611625e-006 59.34961319
rfoot  2.556521167e-006 -14.70060444 2.159490108
rtoes  2.336001174 19.8686595 -96.84438506
lfemur  -15.589324 -1.146718979 -20.64578438
ltibia  -3.641206786e-005 2.004581745e-007 21.51144218
lfoot  -5.693161143e-007 -9.166337013 -5.998223305
ltoes  -5.298979543 -19.31302686 -105.6655569
60
root  -23.21511066 39.39644521 32.08200049 1.790329933 0.9652175903 -1.392689824
lowerback  7.206069946 1.087419987 -2.72487998
upperback  0.610796988 1.252750039 0.6683880091
thorax  -3.482980013 0.6672180295 2.095639944
lowerneck  -16.29439926 4.264200211 -4.242239952
upperneck  24.9803009 6.910289764 1.312950015
head  10.50590038 2.927740097 2.117150068
lclavicle  0 -5.34481991e-014 2.981770104e-014
lhumerus  -33.44620132 15.02420044 79.0184021
lradius  0.003583191894 6.643666666e-007 26.22299767
lwrist  -1.645157397e-007 -3.533851896e-007 -2.395769835
lhand  -5.505032044e-031 -15.8135004 33.60620117
lfingers  90 7.125020027 -90
lthumb  93.41605384 18.01962653 79.07819387
rclavicle  0 -5.34481991e-014 2.981770104e-014
rhumerus  -38.14149857 -18.79680252 -72.50319672
rradius  -1.296506525e-006 2.359789448e-007 42.53839874
rwrist  -2.281664457e-008 -8.593936229e-009 12.32730007
rhand  -1.345748685e-031 10.2737999 9.996669769
rfingers  -90 -7.125020027 -90
rthumb  -72.52445805 -22.91766803 -51.04506765
rfemur  -17.77400398 -3.646439552 22.1006012
rtibia  9.670418422e-007 1.119611625e-006 59.66910172
rfoot  2.556521167e-006 -14.83469677 2.279310465
rtoes  2.336001174 19.8686595 -96.84438506
lfemur  -15.41620445 -1.25944984 -20.81709862
ltibia  -3.641206786e-005 2.004581745e-007 21.94301033
lfoot  -5.693161143e-007 -9.55322361 -6.078181267
ltoes  -5.298979543 -19.31302686 -105.6655569
